<?xml version="1.0" encoding="utf-8"?>
<!-- Generator: Adobe Illustrator 19.1.0, SVG Export Plug-In . SVG Version: 6.00 Build 0)  -->
<svg version="1.1" xmlns="http://www.w3.org/2000/svg" xmlns:xlink="http://www.w3.org/1999/xlink" x="0px" y="0px"
	 viewBox="0 0 147 244.5" style="enable-background:new 0 0 147 244.5;" xml:space="preserve">
<style type="text/css">
	.st0{display:none;}
	.st1{display:inline;}
	.st2{fill:#FFFFFF;}
	.st3{fill:#39B54A;}
	.st4{fill:#8C6239;}
	.st5{fill:#8C6239;stroke:#8C6239;stroke-miterlimit:10;}
</style>
<g id="Layer_1" class="st0">
	<g class="st1">
		<g>
			<path class="st2" d="M-20.1,239.5c0-8.2,0-16.4,0-24.6c5.6,2.5,4.2-1.6,4.7-4.6c0.3-2.1,1.6-5.2,3-5.6c2.3-0.6,5.6,0,7.5,1.4
				c2.2,1.6,3.5,4.7,5,6.9c2.3-8.3,0.1-11.7-7.8-13.3c-2.2-0.4-4-2.6-7.7-5.1c0,0-2.3,0.7-4.6,1.4c0-68.8,0-137.7,0-206.5
				c58.1,0,116.2,0,174.3,0c0,163,0,325.9,0,488.9c-58.1,0-116.2,0-174.3,0c0-70.7,0-141.5,0-212.2c2.9-0.2,5.9-0.4,10.3-0.7
				c-0.7,7.3-1.3,14.2-1.9,21.1c1.3,0.1,2.6,0.3,3.9,0.4c1.5-8.4,2.9-16.8,4.8-27.8c-8.9,5.8-10,1.9-8.4-3.1
				C-8.5,247.1-11.9,242.2-20.1,239.5z M71.9,136.5c0,6.1-0.4,10.8,0.1,15.3c1.2,10.2,5,20.5,3.9,30.4c-3.9,37.2,1.3,74.8-5.3,111.9
				c-0.2,1.2-0.1,2.5-0.1,3.8c0.3,13.8,4.5,27,0.8,41.6c-3.2,12.7-0.3,26.9-0.3,40.4c-0.1,29.2-0.4,58.5-0.3,87.7
				c0,2.9,1.6,5.9,2.5,8.8c1.6-0.2,3.2-0.5,4.8-0.7c0-9.9,0-19.9,0-29.8c0.1-45.6,0-91.2,0.4-136.8c0.2-19.4,1.5-38.7,2.1-58.1
				c0.8-26.2,1.4-52.4,2.1-78.5c0.2-6.9,0-13.9,0-19.8c2.8,2.1,5.4,4,9.5,7.1c-0.9-15,15.8-18.3,16.4-31.2c0,0,0.8,0,0.9-0.1
				c0.9-2.4,3.2-5.9,2.4-7.1c-3.5-5-8-9.3-12.2-13.9c-1,0.5-2,1.1-3,1.6c0.5-2.7,0.9-5.5,1.4-8.3c6.6,4.4,12.2,8.1,17.6,11.7
				c1.1-1.8,2.3-3.8,2.3-3.8c5,3.6,9.2,7.2,14,9.8c1.4,0.7,5.9-1.2,6.4-2.7c4.3-13.5,1.4-26.6-2.8-39.6c-0.4-1.2-2.3-2-3.6-2.9
				c-7.2-4.5-16.4-5.7-19.6-16.3c-1.7-5.7-3.8-5.6,2-7.1c8.7-2.3,17.6-3.8,26.7-5.7c-2.2-7.2-7.2-13.2-14.9-13.2
				c-5.4,0-7-2.3-9.2-5.5c-1.6-2.3-3.2-4.5-4.8-6.7c-0.4,1-0.9,1.9-1.3,2.9c-7.3-1.9-14.6-3.7-21.8-5.6c0-5.6,0-10.3,0-15.9
				C78.9,10.6,78.9,10.6,65.7,3.8c-4-2-14.5,1.8-15.4,6.1c-1.4,7-2.1,14.2-3.1,21.3c-0.5,3.9-1,7.8-1.6,12.3
				c-11-9.3-15.7-10.5-24.8-6.7c1.9,8.8,0.8,10-8.5,9c-3.5-0.4-7-0.1-10.5-0.1c-0.2,1.2-0.3,2.4-0.5,3.6c4.4,2.5,8.8,4.9,14.2,7.9
				c0,0.3,0.2,2.2,0.7,6.1c1.9-4.3,3-6.7,4.3-9.7c2.3,1.6,3.9,2.8,4.7,3.3c-2.1,3.7-4,6.8-5.8,9.9c0.7,0.4,1.5,0.8,2.2,1.3
				c1.3-1.7,2.5-3.5,4.9-6.8c3.2,8.6,5.9,15.6,8.7,23.1c-8.8,0-14.8,0.1-20.8,0c-4.1-0.1-9.9-2.9-10.6,3.8
				c-0.6,5.2,0.8,15.1,2.2,15.2c9.9,1.1,5.1,7.8,5,12.8c6.2-3.7,16.1,0,19.5,6.6c0.3-1,0.4-2.1,1-2.7c2.2-2.4,4.5-4.6,6.8-6.8
				c1.5,2.7,3.8,5.3,4.3,8.2c1.1,5.5,1.2,11.1,1.9,17.6c1.8-3.1,3.2-5.4,3.6-6.2c4.9,6.5,9.7,13,14.5,19.4c0.8-0.5,1.6-0.9,2.4-1.4
				c-1.1-3.8-2.2-7.7-3.3-11.4C64.9,138.6,68,137.7,71.9,136.5z M98.9,179.7c6.2,0,12.2-0.9,17.6,0.3c4.1,0.9,11.2,5.3,10.9,6.6
				c-1.3,5.4-4.8,10.3-7.9,15.2c-4.5,7-10.1,13.3-13.9,20.6c-5.4,10.4,0.8,19.2,7,30.3c2.6-8.1,4.5-14.3,6.4-20.4
				c-0.9-0.4-1.9-0.9-2.8-1.3c-2.7,1.6-5.4,3.3-8.6,5.2c9.8-26.7,15.2-29.7,31.8-16.5c-15.5-1.1-12,10.1-13.2,17.7
				c-0.9,5.7,0.4,11.8,0.7,18.8c2.5,1.1,6.1,2.8,8.8,4c0,3.7,0,7.5,0,11.3c0.6,0,1.2-0.1,1.8-0.1c-1.1,3.1-2.2,6.2-3.1,8.9
				c4.3,1.3,7.7,2.4,11.3,3.6c0.2-0.8,0.4-2.1,0.8-3.2c7.3-19.5,9-38.9,0.4-58.6c-1.1-2.4,0.2-6.1,0.9-9.1c1-4.1,3.4-8.1,3.4-12.2
				c0.3-26,0.2-52,0.2-78.5c-11.5,9.3-4.6,22.6-8.1,33.6c-23.2-16.9-23.2-16.9-27.9-9.1c2,6.7,3.7,12.4,4.7,15.7
				c4.1-0.5,8.1-2.1,11.2-1c8.4,2.9,9,9.3,5.2,17.9C123.4,168.2,110.6,170.3,98.9,179.7z"/>
			<path d="M-20.1,239.5c8.3,2.7,11.6,7.6,8.7,16.5c-1.6,5-0.5,8.9,8.4,3.1c-1.9,10.9-3.3,19.3-4.8,27.8c-1.3-0.1-2.6-0.3-3.9-0.4
				c0.6-6.9,1.2-13.8,1.9-21.1c-4.4,0.3-7.4,0.5-10.3,0.7C-20.1,257.2-20.1,248.4-20.1,239.5z"/>
			<path d="M-20.1,195.9c2.3-0.7,4.6-1.4,4.6-1.4c3.7,2.5,5.5,4.7,7.7,5.1c7.9,1.5,10,4.9,7.8,13.3c-1.5-2.2-2.7-5.3-5-6.9
				c-1.9-1.4-5.2-2-7.5-1.4c-1.4,0.4-2.7,3.6-3,5.6c-0.5,3,0.9,7.1-4.7,4.6C-20.1,208.6-20.1,202.3-20.1,195.9z"/>
			<path d="M71.9,136.5c-3.9,1.2-7,2.1-10.2,3c1.1,3.7,2.2,7.6,3.3,11.4c-0.8,0.5-1.6,0.9-2.4,1.4c-4.8-6.4-9.6-12.9-14.5-19.4
				c-0.5,0.8-1.8,3.1-3.6,6.2c-0.6-6.4-0.8-12.1-1.9-17.6c-0.6-2.9-2.8-5.5-4.3-8.2c-2.3,2.3-4.6,4.5-6.8,6.8
				c-0.6,0.6-0.6,1.7-1,2.7c-3.4-6.6-13.3-10.3-19.5-6.6c0.2-5,4.9-11.7-5-12.8c-1.4-0.2-2.7-10.1-2.2-15.2
				c0.7-6.6,6.5-3.8,10.6-3.8c6,0.1,11.9,0,20.8,0c-2.8-7.5-5.4-14.5-8.7-23.1c-2.4,3.3-3.6,5.1-4.9,6.8c-0.7-0.4-1.5-0.8-2.2-1.3
				c1.8-3.1,3.6-6.2,5.8-9.9c-0.8-0.6-2.5-1.7-4.7-3.3c-1.3,3-2.4,5.4-4.3,9.7c-0.4-3.9-0.6-5.9-0.7-6.1c-5.4-3-9.8-5.5-14.2-7.9
				c0.2-1.2,0.3-2.4,0.5-3.6c3.5,0,7-0.3,10.5,0.1c9.3,0.9,10.5-0.2,8.5-9c9.2-3.8,13.9-2.6,24.8,6.7c0.6-4.5,1-8.4,1.6-12.3
				c1-7.1,1.7-14.3,3.1-21.3c0.9-4.3,11.5-8.1,15.4-6.1c13.2,6.8,13.2,6.8,23.3-3.6c0,5.6,0,10.3,0,15.9c7.3,1.8,14.6,3.7,21.8,5.6
				c0.4-1,0.9-1.9,1.3-2.9c1.6,2.2,3.3,4.4,4.8,6.7c2.2,3.2,3.8,5.6,9.2,5.5c7.6,0,12.6,6,14.9,13.2c-9,1.9-18,3.4-26.7,5.7
				c-5.8,1.5-3.7,1.4-2,7.1c3.2,10.6,12.4,11.8,19.6,16.3c1.3,0.8,3.2,1.6,3.6,2.9c4.3,12.9,7.1,26.1,2.8,39.6
				c-0.5,1.5-5.1,3.5-6.4,2.7c-4.8-2.5-9-6.2-14-9.8c0,0-1.2,2-2.3,3.8c-5.4-3.6-10.9-7.3-17.6-11.7c-0.5,2.8-1,5.6-1.4,8.3
				c1-0.5,2-1.1,3-1.6c4.1,4.6,8.7,8.9,12.2,13.9c0.9,1.2-1.5,4.7-2.4,7.1c0,0.1-0.9,0-0.9,0.1c-0.6,12.9-17.3,16.1-16.4,31.2
				c-4.2-3.1-6.7-5-9.5-7.1c0,5.9,0.1,12.9,0,19.8c-0.6,26.2-1.3,52.4-2.1,78.5c-0.6,19.4-2,38.7-2.1,58.1
				c-0.4,45.6-0.3,91.2-0.4,136.8c0,9.9,0,19.9,0,29.8c-1.6,0.2-3.2,0.5-4.8,0.7c-0.9-2.9-2.5-5.9-2.5-8.8c0-29.2,0.3-58.5,0.3-87.7
				c0-13.5-2.9-27.7,0.3-40.4c3.7-14.6-0.5-27.8-0.8-41.6c0-1.3-0.1-2.6,0.1-3.8c6.6-37,1.4-74.7,5.3-111.9c1-9.9-2.8-20.2-3.9-30.4
				C71.5,147.3,71.9,142.6,71.9,136.5z M27.2,110c1,0.4,2.1,0.8,3.1,1.3c2.5-5.8,5-11.6,7.5-17.3c-1.1-0.5-2.1-0.9-3.2-1.4
				C26.5,95.9,27.2,103.1,27.2,110z M43.5,80.8c1.1-1,2.2-1.9,3.3-2.9c-2.3-2.9-4.6-5.9-6.9-8.8c-1.6,1.4-3.2,2.7-4.8,4.1
				C37.9,75.7,40.7,78.2,43.5,80.8z M66,75.7c0.1-0.7,0.3-1.4,0.4-2.1c-4.6-0.9-9.3-2.2-13.9-2.3c-1,0-2.1,4.4-2.9,6
				C55.9,76.7,61,76.2,66,75.7z"/>
			<path d="M98.9,179.7c11.7-9.4,24.5-11.5,37.8-0.5c3.9-8.6,3.2-15-5.2-17.9c-3.1-1.1-7.1,0.6-11.2,1c-1-3.3-2.7-9-4.7-15.7
				c4.7-7.8,4.7-7.8,27.9,9.1c3.5-11-3.5-24.3,8.1-33.6c0,26.4,0.2,52.5-0.2,78.5c-0.1,4.1-2.5,8.1-3.4,12.2c-0.7,3-2,6.6-0.9,9.1
				c8.6,19.7,6.9,39.1-0.4,58.6c-0.4,1.1-0.6,2.3-0.8,3.2c-3.7-1.2-7.1-2.2-11.3-3.6c0.9-2.6,2-5.7,3.1-8.9c-0.6,0-1.2,0.1-1.8,0.1
				c0-3.8,0-7.6,0-11.3c-2.7-1.2-6.3-2.9-8.8-4c-0.4-7-1.6-13.1-0.7-18.8c1.1-7.6-2.4-18.8,13.2-17.7c-16.6-13.2-22-10.1-31.8,16.5
				c3.2-1.9,5.9-3.6,8.6-5.2c0.9,0.4,1.9,0.9,2.8,1.3c-1.9,6.1-3.9,12.3-6.4,20.4c-6.2-11.2-12.4-19.9-7-30.3
				c3.8-7.3,9.4-13.6,13.9-20.6c3.1-4.8,6.5-9.8,7.9-15.2c0.3-1.3-6.8-5.7-10.9-6.6C111,178.8,105.1,179.7,98.9,179.7z"/>
			<path class="st2" d="M27.2,110c0-6.9-0.7-14.1,7.4-17.4c1.1,0.5,2.1,0.9,3.2,1.4c-2.5,5.8-5,11.6-7.5,17.3
				C29.3,110.9,28.2,110.4,27.2,110z"/>
			<path class="st2" d="M43.5,80.8c-2.8-2.5-5.5-5.1-8.3-7.6c1.6-1.4,3.2-2.7,4.8-4.1c2.3,2.9,4.6,5.9,6.9,8.8
				C45.7,78.8,44.6,79.8,43.5,80.8z"/>
			<path class="st2" d="M66,75.7c-5.1,0.5-10.2,1-16.4,1.7c0.7-1.6,1.8-6,2.9-6c4.7,0.1,9.3,1.4,13.9,2.3C66.3,74.3,66.2,75,66,75.7
				z"/>
		</g>
	</g>
</g>
<g id="Layer_2">
	<path class="st3" d="M139.5,102c0,0,0.9-25.3-5.5-27.5C116,68.5,110,52,110,52l29.5-9.5c0,0-1-16-9.5-11s-16.6-13-16.6-13l-2.6,2.8
		L87,15.5V0C76,12.5,75,9,75,9C59.5-4,50.4,9,50.4,9l-5.2,33.5c-18.8-14-24.8-5-24.8-5c5,9.5-4.6,8-4.6,8L0,44.5V49l14.8,6.5l1.8,6
		L21,54l5,3l-6.5,10l2.5,0.5l4.5-6.5l8,23l-21,0.5c-15.5-5-8,18-8,18s12.5,5,5.5,12.5c-0.6,0.6-0.9,1.2-1.1,1.7
		c2.3-0.7,4.7-1.2,7.2-1c5,0.3,9,2.9,12.8,5.8c0.3,0,0.5,0,0.5,0l7-8.5l4,5.5l3.7,20l3.3-5L64.2,151L61,138.5c0,0,17-4,12-2
		s4,45,4,45l-2,6.5l-1.5,20l1.5,40l-2.5,34L70,300c0,0,8,32.5,3.5,32.5c-1.2,0-1.9,2.9-2.3,7.1c2.3,0.3,4.6,0.9,6.8,1.6l0-8.4
		l1-36.8l2.5-84l1.5-60l9.4,8c0,0,1.6-13,8.1-16.5s8-15,8-15l3.5-5.5l-12.5-16l-3,2.5l1.5-9l16.5,13l3-4l14.5,8
		C132,117.5,140.4,119.7,139.5,102z"/>
	<path class="st3" d="M71,374.1l-0.1,7.1c0.4-0.1,0.8-0.1,1-0.2c2-0.4,4-0.9,5.9-1.4l0-12.7c-2.4,1.5-4.7,3-7,4.7
		C71,373.2,71,374.1,71,374.1z"/>
	<path class="st3" d="M70.8,389.8c2.1-2.5,4.5-5,7-7.2l0-2.2c-2.3,0.6-4.6,1.1-6.9,1.4L70.8,389.8z"/>
	<path class="st3" d="M77.9,365.5l0.1-23.2c-2.1-0.9-4.4-1.5-6.9-1.9c-0.8,8.7-0.5,22.4-0.3,29.4C73,368.1,75.3,366.6,77.9,365.5z"
		/>
	<path class="st3" d="M77.8,385.2c-0.7,0.7-1.4,1.4-2.1,2.1c-1.6,1.7-3.3,3.5-4.9,5.4l-0.3,24c2.4,0.6,4.8,1.2,7.2,1.9L77.8,385.2z"
		/>
	<path class="st3" d="M70.5,417.2L70,468.2l3,9.2h4.5l0.2-57.9C75.4,418.7,73,417.9,70.5,417.2z"/>
	<path class="st4" d="M36,93c0,0-10-5.5-8.5,16.5l3,2.5L36,93z"/>
	<polygon class="st4" points="36,72.5 40.5,69 46,77.5 41,80 	"/>
	<polygon class="st4" points="50,74.5 53.2,71.5 63.8,74.5 50,77.5 	"/>
	<polygon class="st5" points="72.8,136.5 71.5,147.1 76.9,181.5 74.3,196.9 74.6,253.1 70,300 74.9,328.5 73.5,332.5 71.1,339.8 
		70.6,351.1 70,468 73,477 77,477 83,152 	"/>
	<path class="st5" d="M309.7,299.2"/>
</g>
</svg>
