<?xml version="1.0" encoding="utf-8"?>
<!-- Generator: Adobe Illustrator 19.1.0, SVG Export Plug-In . SVG Version: 6.00 Build 0)  -->
<svg version="1.1" id="Layer_1" xmlns="http://www.w3.org/2000/svg" xmlns:xlink="http://www.w3.org/1999/xlink" x="0px" y="0px"
	 viewBox="0 0 40 40" style="enable-background:new 0 0 40 40;" xml:space="preserve">
<style type="text/css">
	.st0{fill:#EF9D9C;}
</style>
<g>
	<line class="st0" x1="5" y1="6.3" x2="35" y2="6.3"/>
	<g>
		<path class="st0" d="M5,10.5c10,0,20,0,30,0c5.8,0,5.8-9.1,0-9.1c-10,0-20,0-30,0C-0.8,1.5-0.8,10.5,5,10.5L5,10.5z"/>
	</g>
</g>
<g>
	<line class="st0" x1="5" y1="34.3" x2="35" y2="34.3"/>
	<g>
		<path class="st0" d="M5,38.5c10,0,20,0,30,0c5.8,0,5.8-9.1,0-9.1c-10,0-20,0-30,0C-0.8,29.5-0.8,38.5,5,38.5L5,38.5z"/>
	</g>
</g>
<g>
	<line class="st0" x1="5" y1="20.3" x2="35" y2="20.3"/>
	<g>
		<path class="st0" d="M5,24.5c10,0,20,0,30,0c5.8,0,5.8-9.1,0-9.1c-10,0-20,0-30,0C-0.8,15.5-0.8,24.5,5,24.5L5,24.5z"/>
	</g>
</g>
</svg>
