<?xml version="1.0" encoding="utf-8"?>
<!-- Generator: Adobe Illustrator 19.1.0, SVG Export Plug-In . SVG Version: 6.00 Build 0)  -->
<svg version="1.1" id="Layer_1" xmlns="http://www.w3.org/2000/svg" xmlns:xlink="http://www.w3.org/1999/xlink" x="0px" y="0px"
	 viewBox="-406 113.5 139.6 477.4" style="enable-background:new -406 113.5 139.6 477.4;" xml:space="preserve">
<style type="text/css">
	.st0{display:none;}
	.st1{display:inline;}
	.st2{fill:#FFFFFF;}
	.st3{fill:#39B54A;}
	.st4{fill:#8C6239;}
	.st5{fill:#8C6239;stroke:#8C6239;stroke-miterlimit:10;}
</style>
<g id="Layer_1_1_" class="st0">
	<g class="st1">
		<g>
			<path class="st2" d="M-426.1,353c0-8.2,0-16.4,0-24.6c5.6,2.5,4.2-1.6,4.7-4.6c0.3-2.1,1.6-5.2,3-5.6c2.3-0.6,5.6,0,7.5,1.4
				c2.2,1.6,3.5,4.7,5,6.9c2.3-8.3,0.1-11.7-7.8-13.3c-2.2-0.4-4-2.6-7.7-5.1c0,0-2.3,0.7-4.6,1.4c0-68.8,0-137.7,0-206.5
				c58.1,0,116.2,0,174.3,0c0,163,0,325.9,0,488.9c-58.1,0-116.2,0-174.3,0c0-70.7,0-141.5,0-212.2c2.9-0.2,5.9-0.4,10.3-0.7
				c-0.7,7.3-1.3,14.2-1.9,21.1c1.3,0.1,2.6,0.3,3.9,0.4c1.5-8.4,2.9-16.8,4.8-27.8c-8.9,5.8-10,1.9-8.4-3.1
				C-414.5,360.6-417.9,355.7-426.1,353z M-334.1,250c0,6.1-0.4,10.8,0.1,15.3c1.2,10.2,5,20.5,3.9,30.4
				c-3.9,37.2,1.3,74.8-5.3,111.9c-0.2,1.2-0.1,2.5-0.1,3.8c0.3,13.8,4.5,27,0.8,41.6c-3.2,12.7-0.3,26.9-0.3,40.4
				c-0.1,29.2-0.4,58.5-0.3,87.7c0,2.9,1.6,5.9,2.5,8.8c1.6-0.2,3.2-0.5,4.8-0.7c0-9.9,0-19.9,0-29.8c0.1-45.6,0-91.2,0.4-136.8
				c0.2-19.4,1.5-38.7,2.1-58.1c0.8-26.2,1.4-52.4,2.1-78.5c0.2-6.9,0-13.9,0-19.8c2.8,2.1,5.4,4,9.5,7.1
				c-0.9-15,15.8-18.3,16.4-31.2c0,0,0.8,0,0.9-0.1c0.9-2.4,3.2-5.9,2.4-7.1c-3.5-5-8-9.3-12.2-13.9c-1,0.5-2,1.1-3,1.6
				c0.5-2.7,0.9-5.5,1.4-8.3c6.6,4.4,12.2,8.1,17.6,11.7c1.1-1.8,2.3-3.8,2.3-3.8c5,3.6,9.2,7.2,14,9.8c1.4,0.7,5.9-1.2,6.4-2.7
				c4.3-13.5,1.4-26.6-2.8-39.6c-0.4-1.2-2.3-2-3.6-2.9c-7.2-4.5-16.4-5.7-19.6-16.3c-1.7-5.7-3.8-5.6,2-7.1
				c8.7-2.3,17.6-3.8,26.7-5.7c-2.2-7.2-7.2-13.2-14.9-13.2c-5.4,0-7-2.3-9.2-5.5c-1.6-2.3-3.2-4.5-4.8-6.7c-0.4,1-0.9,1.9-1.3,2.9
				c-7.3-1.9-14.6-3.7-21.8-5.6c0-5.6,0-10.3,0-15.9c-10.1,10.4-10.1,10.4-23.3,3.6c-4-2-14.5,1.8-15.4,6.1
				c-1.4,7-2.1,14.2-3.1,21.3c-0.5,3.9-1,7.8-1.6,12.3c-11-9.3-15.7-10.5-24.8-6.7c1.9,8.8,0.8,10-8.5,9c-3.5-0.4-7-0.1-10.5-0.1
				c-0.2,1.2-0.3,2.4-0.5,3.6c4.4,2.5,8.8,4.9,14.2,7.9c0,0.3,0.2,2.2,0.7,6.1c1.9-4.3,3-6.7,4.3-9.7c2.3,1.6,3.9,2.8,4.7,3.3
				c-2.1,3.7-4,6.8-5.8,9.9c0.7,0.4,1.5,0.8,2.2,1.3c1.3-1.7,2.5-3.5,4.9-6.8c3.2,8.6,5.9,15.6,8.7,23.1c-8.8,0-14.8,0.1-20.8,0
				c-4.1-0.1-9.9-2.9-10.6,3.8c-0.6,5.2,0.8,15.1,2.2,15.2c9.9,1.1,5.1,7.8,5,12.8c6.2-3.7,16.1,0,19.5,6.6c0.3-1,0.4-2.1,1-2.7
				c2.2-2.4,4.5-4.6,6.8-6.8c1.5,2.7,3.8,5.3,4.3,8.2c1.1,5.5,1.2,11.1,1.9,17.6c1.8-3.1,3.2-5.4,3.6-6.2c4.9,6.5,9.7,13,14.5,19.4
				c0.8-0.5,1.6-0.9,2.4-1.4c-1.1-3.8-2.2-7.7-3.3-11.4C-341.1,252.1-338,251.2-334.1,250z M-307.1,293.2c6.2,0,12.2-0.9,17.6,0.3
				c4.1,0.9,11.2,5.3,10.9,6.6c-1.3,5.4-4.8,10.3-7.9,15.2c-4.5,7-10.1,13.3-13.9,20.6c-5.4,10.4,0.8,19.2,7,30.3
				c2.6-8.1,4.5-14.3,6.4-20.4c-0.9-0.4-1.9-0.9-2.8-1.3c-2.7,1.6-5.4,3.3-8.6,5.2c9.8-26.7,15.2-29.7,31.8-16.5
				c-15.5-1.1-12,10.1-13.2,17.7c-0.9,5.7,0.4,11.8,0.7,18.8c2.5,1.1,6.1,2.8,8.8,4c0,3.7,0,7.5,0,11.3c0.6,0,1.2-0.1,1.8-0.1
				c-1.1,3.1-2.2,6.2-3.1,8.9c4.3,1.3,7.7,2.4,11.3,3.6c0.2-0.8,0.4-2.1,0.8-3.2c7.3-19.5,9-38.9,0.4-58.6c-1.1-2.4,0.2-6.1,0.9-9.1
				c1-4.1,3.4-8.1,3.4-12.2c0.3-26,0.2-52,0.2-78.5c-11.5,9.3-4.6,22.6-8.1,33.6c-23.2-16.9-23.2-16.9-27.9-9.1
				c2,6.7,3.7,12.4,4.7,15.7c4.1-0.5,8.1-2.1,11.2-1c8.4,2.9,9,9.3,5.2,17.9C-282.6,281.7-295.4,283.8-307.1,293.2z"/>
			<path d="M-426.1,353c8.3,2.7,11.6,7.6,8.7,16.5c-1.6,5-0.5,8.9,8.4,3.1c-1.9,10.9-3.3,19.3-4.8,27.8c-1.3-0.1-2.6-0.3-3.9-0.4
				c0.6-6.9,1.2-13.8,1.9-21.1c-4.4,0.3-7.4,0.5-10.3,0.7C-426.1,370.7-426.1,361.9-426.1,353z"/>
			<path d="M-426.1,309.4c2.3-0.7,4.6-1.4,4.6-1.4c3.7,2.5,5.5,4.7,7.7,5.1c7.9,1.5,10,4.9,7.8,13.3c-1.5-2.2-2.7-5.3-5-6.9
				c-1.9-1.4-5.2-2-7.5-1.4c-1.4,0.4-2.7,3.6-3,5.6c-0.5,3,0.9,7.1-4.7,4.6C-426.1,322.1-426.1,315.8-426.1,309.4z"/>
			<path d="M-334.1,250c-3.9,1.2-7,2.1-10.2,3c1.1,3.7,2.2,7.6,3.3,11.4c-0.8,0.5-1.6,0.9-2.4,1.4c-4.8-6.4-9.6-12.9-14.5-19.4
				c-0.5,0.8-1.8,3.1-3.6,6.2c-0.6-6.4-0.8-12.1-1.9-17.6c-0.6-2.9-2.8-5.5-4.3-8.2c-2.3,2.3-4.6,4.5-6.8,6.8
				c-0.6,0.6-0.6,1.7-1,2.7c-3.4-6.6-13.3-10.3-19.5-6.6c0.2-5,4.9-11.7-5-12.8c-1.4-0.2-2.7-10.1-2.2-15.2
				c0.7-6.6,6.5-3.8,10.6-3.8c6,0.1,11.9,0,20.8,0c-2.8-7.5-5.4-14.5-8.7-23.1c-2.4,3.3-3.6,5.1-4.9,6.8c-0.7-0.4-1.5-0.8-2.2-1.3
				c1.8-3.1,3.6-6.2,5.8-9.9c-0.8-0.6-2.5-1.7-4.7-3.3c-1.3,3-2.4,5.4-4.3,9.7c-0.4-3.9-0.6-5.9-0.7-6.1c-5.4-3-9.8-5.5-14.2-7.9
				c0.2-1.2,0.3-2.4,0.5-3.6c3.5,0,7-0.3,10.5,0.1c9.3,0.9,10.5-0.2,8.5-9c9.2-3.8,13.9-2.6,24.8,6.7c0.6-4.5,1-8.4,1.6-12.3
				c1-7.1,1.7-14.3,3.1-21.3c0.9-4.3,11.5-8.1,15.4-6.1c13.2,6.8,13.2,6.8,23.3-3.6c0,5.6,0,10.3,0,15.9c7.3,1.8,14.6,3.7,21.8,5.6
				c0.4-1,0.9-1.9,1.3-2.9c1.6,2.2,3.3,4.4,4.8,6.7c2.2,3.2,3.8,5.6,9.2,5.5c7.6,0,12.6,6,14.9,13.2c-9,1.9-18,3.4-26.7,5.7
				c-5.8,1.5-3.7,1.4-2,7.1c3.2,10.6,12.4,11.8,19.6,16.3c1.3,0.8,3.2,1.6,3.6,2.9c4.3,12.9,7.1,26.1,2.8,39.6
				c-0.5,1.5-5.1,3.5-6.4,2.7c-4.8-2.5-9-6.2-14-9.8c0,0-1.2,2-2.3,3.8c-5.4-3.6-10.9-7.3-17.6-11.7c-0.5,2.8-1,5.6-1.4,8.3
				c1-0.5,2-1.1,3-1.6c4.1,4.6,8.7,8.9,12.2,13.9c0.9,1.2-1.5,4.7-2.4,7.1c0,0.1-0.9,0-0.9,0.1c-0.6,12.9-17.3,16.1-16.4,31.2
				c-4.2-3.1-6.7-5-9.5-7.1c0,5.9,0.1,12.9,0,19.8c-0.6,26.2-1.3,52.4-2.1,78.5c-0.6,19.4-2,38.7-2.1,58.1
				c-0.4,45.6-0.3,91.2-0.4,136.8c0,9.9,0,19.9,0,29.8c-1.6,0.2-3.2,0.5-4.8,0.7c-0.9-2.9-2.5-5.9-2.5-8.8c0-29.2,0.3-58.5,0.3-87.7
				c0-13.5-2.9-27.7,0.3-40.4c3.7-14.6-0.5-27.8-0.8-41.6c0-1.3-0.1-2.6,0.1-3.8c6.6-37,1.4-74.7,5.3-111.9c1-9.9-2.8-20.2-3.9-30.4
				C-334.5,260.8-334.1,256.1-334.1,250z M-378.8,223.5c1,0.4,2.1,0.8,3.1,1.3c2.5-5.8,5-11.6,7.5-17.3c-1.1-0.5-2.1-0.9-3.2-1.4
				C-379.5,209.4-378.8,216.6-378.8,223.5z M-362.5,194.3c1.1-1,2.2-1.9,3.3-2.9c-2.3-2.9-4.6-5.9-6.9-8.8c-1.6,1.4-3.2,2.7-4.8,4.1
				C-368.1,189.2-365.3,191.7-362.5,194.3z M-340,189.2c0.1-0.7,0.3-1.4,0.4-2.1c-4.6-0.9-9.3-2.2-13.9-2.3c-1,0-2.1,4.4-2.9,6
				C-350.1,190.2-345,189.7-340,189.2z"/>
			<path d="M-307.1,293.2c11.7-9.4,24.5-11.5,37.8-0.5c3.9-8.6,3.2-15-5.2-17.9c-3.1-1.1-7.1,0.6-11.2,1c-1-3.3-2.7-9-4.7-15.7
				c4.7-7.8,4.7-7.8,27.9,9.1c3.5-11-3.5-24.3,8.1-33.6c0,26.4,0.2,52.5-0.2,78.5c-0.1,4.1-2.5,8.1-3.4,12.2c-0.7,3-2,6.6-0.9,9.1
				c8.6,19.7,6.9,39.1-0.4,58.6c-0.4,1.1-0.6,2.3-0.8,3.2c-3.7-1.2-7.1-2.2-11.3-3.6c0.9-2.6,2-5.7,3.1-8.9c-0.6,0-1.2,0.1-1.8,0.1
				c0-3.8,0-7.6,0-11.3c-2.7-1.2-6.3-2.9-8.8-4c-0.4-7-1.6-13.1-0.7-18.8c1.1-7.6-2.4-18.8,13.2-17.7c-16.6-13.2-22-10.1-31.8,16.5
				c3.2-1.9,5.9-3.6,8.6-5.2c0.9,0.4,1.9,0.9,2.8,1.3c-1.9,6.1-3.9,12.3-6.4,20.4c-6.2-11.2-12.4-19.9-7-30.3
				c3.8-7.3,9.4-13.6,13.9-20.6c3.1-4.8,6.5-9.8,7.9-15.2c0.3-1.3-6.8-5.7-10.9-6.6C-295,292.3-300.9,293.2-307.1,293.2z"/>
			<path class="st2" d="M-378.8,223.5c0-6.9-0.7-14.1,7.4-17.4c1.1,0.5,2.1,0.9,3.2,1.4c-2.5,5.8-5,11.6-7.5,17.3
				C-376.7,224.4-377.8,223.9-378.8,223.5z"/>
			<path class="st2" d="M-362.5,194.3c-2.8-2.5-5.5-5.1-8.3-7.6c1.6-1.4,3.2-2.7,4.8-4.1c2.3,2.9,4.6,5.9,6.9,8.8
				C-360.3,192.3-361.4,193.3-362.5,194.3z"/>
			<path class="st2" d="M-340,189.2c-5.1,0.5-10.2,1-16.4,1.7c0.7-1.6,1.8-6,2.9-6c4.7,0.1,9.3,1.4,13.9,2.3
				C-339.7,187.8-339.8,188.5-340,189.2z"/>
		</g>
	</g>
</g>
<g id="Layer_2">
	<path class="st3" d="M-266.5,215.5c0,0,0.9-25.3-5.5-27.5c-18-6-24-22.5-24-22.5l29.5-9.5c0,0-1-16-9.5-11s-16.6-13-16.6-13
		l-2.6,2.8L-319,129v-15.5c-11,12.5-12,9-12,9c-15.5-13-24.6,0-24.6,0l-5.2,33.5c-18.8-14-24.8-5-24.8-5c5,9.5-4.6,8-4.6,8l-15.8-1
		v4.5l14.8,6.5l1.8,6l4.4-7.5l5,3l-6.5,10l2.5,0.5l4.5-6.5l8,23l-21,0.5c-15.5-5-8,18-8,18s12.5,5,5.5,12.5
		c-0.6,0.6-0.9,1.2-1.1,1.7c2.3-0.7,4.7-1.2,7.2-1c5,0.3,9,2.9,12.8,5.8c0.3,0,0.5,0,0.5,0l7-8.5l4,5.5l3.7,20l3.3-5l15.8,17.5
		L-345,252c0,0,17-4,12-2s4,45,4,45l-2,6.5l-1.5,20l1.5,40l-2.5,34l-2.5,18c0,0,8,32.5,3.5,32.5c-1.2,0-1.9,2.9-2.3,7.1
		c2.3,0.3,4.6,0.9,6.8,1.6v-8.4l1-36.8l2.5-84l1.5-60l9.4,8c0,0,1.6-13,8.1-16.5s8-15,8-15l3.5-5.5l-12.5-16l-3,2.5l1.5-9l16.5,13
		l3-4l14.5,8C-274,231-265.6,233.2-266.5,215.5z"/>
	<path class="st3" d="M-335,487.6l-0.1,7.1c0.4-0.1,0.8-0.1,1-0.2c2-0.4,4-0.9,5.9-1.4v-12.7c-2.4,1.5-4.7,3-7,4.7
		C-335,486.7-335,487.6-335,487.6z"/>
	<path class="st3" d="M-335.2,503.3c2.1-2.5,4.5-5,7-7.2v-2.2c-2.3,0.6-4.6,1.1-6.9,1.4L-335.2,503.3z"/>
	<path class="st3" d="M-328.1,479l0.1-23.2c-2.1-0.9-4.4-1.5-6.9-1.9c-0.8,8.7-0.5,22.4-0.3,29.4C-333,481.6-330.7,480.1-328.1,479z
		"/>
	<path class="st3" d="M-328.2,498.7c-0.7,0.7-1.4,1.4-2.1,2.1c-1.6,1.7-3.3,3.5-4.9,5.4l-0.3,24c2.4,0.6,4.8,1.2,7.2,1.9
		L-328.2,498.7z"/>
	<path class="st3" d="M-335.5,530.7l-0.5,51l3,9.2h4.5l0.2-57.9C-330.6,532.2-333,531.4-335.5,530.7z"/>
	<path class="st4" d="M-370,206.5c0,0-10-5.5-8.5,16.5l3,2.5L-370,206.5z"/>
	<polygon class="st4" points="-370,186 -365.5,182.5 -360,191 -365,193.5 	"/>
	<polygon class="st4" points="-356,188 -352.8,185 -342.2,188 -356,191 	"/>
	<polygon class="st5" points="-333.2,250 -334.5,260.6 -329.1,295 -331.7,310.4 -331.4,366.6 -336,413.5 -331.1,442 -332.5,446 
		-334.9,453.3 -335.4,464.6 -336,581.5 -333,590.5 -329,590.5 -323,265.5 	"/>
	<path class="st5" d="M-96.3,412.7"/>
</g>
</svg>
