<svg xmlns:xlink="http://www.w3.org/1999/xlink" xmlns="http://www.w3.org/2000/svg" onmouseover="startAnimation();" class="water-circle" width="700" height="300" 
			     version="1.1">
     <!-- <script type="text/javascript" xlink:href="circles.js"/> --> 
			
				
			    <circle id="circle0" cx="120" cy="30" r="10" height="100">
			    </circle>
			    <circle id="circle1" cx="120" cy="70" r="10" height="100">
			    </circle>
			    <circle id="circle2" cx="120" cy="120" r="10" height="100">
			    </circle>
			    <circle id="circle3" cx="120" cy="190" r="10" height="100">
			    </circle>
			    <circle id="circle4" cx="120" cy="250" r="10" height="100">
			    </circle>
	

				<circle  id="circle5" cx="190" cy="30" r="10" height="100">
			    </circle>
			    <circle id="circle6" cx="190" cy="70" r="10" height="100">
			    </circle>
			    <circle id="circle7" cx="190" cy="120" r="10" height="100">
			    </circle>
			    <circle id="circle8" cx="190" cy="190" r="10" height="100">
			    </circle>
			    <circle id="circle9" cx="190" cy="250" r="10" height="100">
			    </circle>

			    <circle  id="circle10" cx="260" cy="30" r="10" height="100">
			    </circle>
			    <circle id="circle11" cx="260" cy="70" r="10" height="100">
			    </circle>
			    <circle id="circle12" cx="260" cy="120" r="10" height="100">
			    </circle>
			    <circle id="circle13" cx="260" cy="190" r="10" height="100">
			    </circle>
			    <circle id="circle14" cx="260" cy="250" r="10" height="100">
			    </circle>

			     <circle  id="circle15" cx="330" cy="30" r="10" height="100">
			    </circle>
			    <circle id="circle16" cx="330" cy="70" r="10" height="100">
			    </circle>
			    <circle id="circle17" cx="330" cy="120" r="10" height="100">
			    </circle>
			    <circle id="circle18" cx="330" cy="190" r="10" height="100">
			    </circle>
			    <circle id="circle19" cx="330" cy="250" r="10" height="100">
			    </circle>

				<circle  id="circle20" cx="400" cy="30" r="10" height="100">
			    </circle>
			    <circle id="circle21" cx="400" cy="70" r="10" height="100">
			    </circle>
			    <circle id="circle22" cx="400" cy="120" r="10" height="100">
			    </circle>
			    <circle id="circle23" cx="400" cy="190" r="10" height="100">
			    </circle>
			    <circle id="circle24" cx="400" cy="250" r="10" height="100">
			    </circle>

				<circle  id="circle25" cx="470" cy="30" r="10" height="100">
			    </circle>
			    <circle id="circle26" cx="470" cy="70" r="10" height="100">
			    </circle>
			    <circle id="circle27" cx="470" cy="120" r="10" height="100">
			    </circle>
			    <circle id="circle28" cx="470" cy="190" r="10" height="100">
			    </circle>
			    <circle id="circle29" cx="470" cy="250" r="10" height="100">
			    </circle>

				<circle  id="circle30" cx="540" cy="30" r="10" height="100">
			    </circle>
			    <circle id="circle31" cx="540" cy="70" r="10" height="100">
			    </circle>
			    <circle id="circle32" cx="540" cy="120" r="10" height="100">
			    </circle>
			    <circle id="circle33" cx="540" cy="190" r="10" height="100">
			    </circle>
			    <circle id="circle34" cx="540" cy="250" r="10" height="100">
			    </circle>

				<circle  id="circle35" cx="610" cy="30" r="10" height="100">
			    </circle>
			    <circle id="circle36" cx="610" cy="70" r="10" height="100">
			    </circle>
			    <circle id="circle37" cx="610" cy="120" r="10" height="100">
			    </circle>
			    <circle id="circle38" cx="610" cy="190" r="10" height="100">
			    </circle>
			    <circle id="circle39" cx="610" cy="250" r="10" height="100">
			    </circle>
	
	
			</svg>
